Coordinates
version=1
nRows=14
nColumns=33
inDegrees=yes

Units are S.I. units (second, meters, Newtons, ...)
Angles are in degrees.

endheader
time	ground_thorax_rot_x	ground_thorax_rot_y	ground_thorax_rot_z	ground_thorax_tx	ground_thorax_ty	ground_thorax_tz	clav_prot_r	clav_elev_r	scapula_abduction_r	scapula_elevation_r	scapula_upward_rot_r	scapula_winging_r	shoulder_elv_r	plane_of_elev_r	axial_rot_r	elbow_flexion_r	pro_sup_r	wrist_flex_r	wrist_dev_r	clav_prot_l	clav_elev_l	scapula_abduction_l	scapula_elevation_l	scapula_upward_rot_l	scapula_winging_l	shoulder_elv_l	plane_of_elev_l	axial_rot_l	elbow_flexion_l	pro_sup_l	wrist_flex_l	wrist_dev_l
      4.10000000	     29.83830058	     33.01490034	     40.21841563	     39.20078226	    766.98637760	    -42.78521217	     12.08897796	     36.00111726	     26.41439168	     45.00000000	    -45.00000000	  -3319.45513657	  -3167.81043784	     22.44676079	    179.99999979	   1805.75774417	   -170.99557818	     12.78573704	     11.98794544	    -14.22128297	    -45.00000000	    -34.33857016	     45.00000000	    -45.00000000	  -2421.92867265	    -92.99716021	    135.77278163	   -130.99282550	    350.30600117	     49.67021618	     10.89202241	    -16.26425458
      4.11000000	     29.94042580	     32.93110146	     39.95045923	     35.99618304	    767.00139351	    -42.83200290	     12.07269063	     35.94634489	     26.25209447	     45.00000000	    -45.00000000	  -3319.55335328	  -3167.78222943	     22.43343963	    179.99999979	   1805.84290313	   -170.91613651	     12.77570074	     12.03246628	    -14.11332230	    -45.00000000	    -34.39458376	     45.00000000	    -45.00000000	  -2421.75276346	    -92.92215430	    135.80785874	   -131.23059111	    350.30252459	     49.64706071	     10.91136514	    -16.27119088
      4.12000000	     30.09175364	     32.73358959	     39.60381694	     32.75975584	    767.07005430	    -42.88203697	     12.01406774	     35.94842173	     26.17836940	     45.00000000	    -45.00000000	  -3319.65743867	  -3167.69324938	     22.46018790	    179.99999979	   1805.92592797	   -170.84569525	     12.76582333	     12.09169458	    -14.05017486	    -45.00000000	    -34.44464357	     45.00000000	    -45.00000000	  -2421.59329414	    -92.83224005	    135.78921509	   -131.45729118	    350.31739486	     49.63207214	     10.93309636	    -16.29076975
      4.13000000	     30.19243396	     32.58926928	     39.33510364	     29.48768771	    767.19296907	    -42.93810428	     11.99348304	     35.90927988	     26.02078825	     45.00000000	    -45.00000000	  -3319.74514643	  -3167.60191616	     22.46426267	    179.99999979	   1805.97217794	   -170.77762012	     12.76869444	     12.13736213	    -13.93040781	    -45.00000000	    -34.53621181	     45.00000000	    -45.00000000	  -2421.38984742	    -92.81359449	    135.81245842	   -131.77969671	    350.37674170	     49.62103906	     10.93256459	    -16.31171635
      4.14000000	     30.27695425	     32.46888447	     39.07921065	     26.18592657	    767.37062283	    -43.00281735	     11.99802256	     35.83540454	     25.85911587	     45.00000000	    -45.00000000	  -3319.86763876	  -3167.54333957	     22.47831007	    179.99999979	   1806.02777324	   -170.70759676	     12.76802311	     12.18024693	    -13.80785718	    -45.00000000	    -34.58959132	     45.00000000	    -45.00000000	  -2421.24309893	    -92.69258869	    135.83972691	   -131.98912120	    350.36665749	     49.61674380	     10.95580220	    -16.32279557
      4.15000000	     30.42477701	     32.27628081	     38.76932039	     22.85541767	    767.60309080	    -43.07960374	     11.92315362	     35.84912731	     25.75083285	     45.00000000	    -45.00000000	  -3319.97526368	  -3167.46712420	     22.51012839	    179.99999979	   1806.09515363	   -170.63005981	     12.76965746	     12.25372501	    -13.72274933	    -45.00000000	    -34.63585711	     45.00000000	    -45.00000000	  -2421.00503731	    -92.66632049	    135.80710819	   -132.25044761	    350.40463419	     49.61217521	     10.96798958	    -16.35325997
      4.16000000	     30.49743404	     32.10855931	     38.51805226	     19.50537396	    767.89247109	    -43.16619230	     11.97134787	     35.74386417	     25.58569602	     45.00000000	    -45.00000000	  -3320.05117120	  -3167.38930939	     22.51620120	    179.99999979	   1806.12641996	   -170.55335906	     12.78300800	     12.28101425	    -13.58726920	    -45.00000000	    -34.73418996	     45.00000000	    -45.00000000	  -2420.87789274	    -92.55950771	    135.87625449	   -132.43753986	    350.40401662	     49.60551538	     10.97892461	    -16.35527224
      4.17000000	     30.52800270	     31.99464955	     38.31685477	     16.13151690	    768.24267129	    -43.26160083	     11.98765001	     35.66938561	     25.41220204	     45.00000000	    -45.00000000	  -3320.17068082	  -3167.36216100	     22.47196805	    179.99999979	   1806.11636359	   -170.45936342	     12.82717851	     12.30609705	    -13.43348518	    -45.00000000	    -34.87962444	     45.00000000	    -45.00000000	  -2420.74621772	    -92.43997043	    135.93821449	   -132.68357647	    350.37344656	     49.59630533	     10.98735747	    -16.34063154
      4.18000000	     30.70405208	     31.74034771	     37.99358187	     12.75398694	    768.65844664	    -43.35578142	     11.92034028	     35.68593015	     25.37895179	     45.00000000	    -45.00000000	  -3320.31734966	  -3167.32214565	     22.51423042	    179.99999979	   1806.16474651	   -170.34359689	     12.85909780	     12.38835964	    -13.40038027	    -45.00000000	    -34.85837400	     45.00000000	    -45.00000000	  -2420.53787400	    -92.35118868	    135.91887767	   -132.74787577	    350.35655475	     49.57544008	     11.03102299	    -16.37471469
      4.19000000	     30.77652726	     31.59570353	     37.72246046	      9.35744063	    769.14351000	    -43.45658453	     11.99602177	     35.56885810	     25.15885585	     45.00000000	    -45.00000000	  -3320.37934372	  -3167.24087402	     22.49144579	    179.99999979	   1806.21353062	   -170.20637679	     12.91697865	     12.40751315	    -13.23816136	    -45.00000000	    -34.94777339	     45.00000000	    -45.00000000	  -2420.41606390	    -92.25694643	    135.93729911	   -132.84436536	    350.34971334	     49.53553361	     11.04901960	    -16.36830494
      4.20000000	     30.92665115	     31.35105509	     37.44686863	      5.91956585	    769.70237551	    -43.57170627	     11.94635811	     35.55737085	     25.07392929	     45.00000000	    -45.00000000	  -3320.53336760	  -3167.18625679	     22.51627464	    179.99999979	   1806.24759948	   -169.99882109	     13.04914013	     12.44364754	    -13.17030875	    -45.00000000	    -34.97116291	     45.00000000	    -45.00000000	  -2420.19223276	    -92.19665205	    135.91261339	   -132.96865181	    350.37206860	     49.46711497	     11.08607787	    -16.39960960
      4.21000000	     31.02715338	     31.12196664	     37.17038147	      2.43091511	    770.33521794	    -43.71291250	     11.99334156	     35.45806960	     24.86331889	     45.00000000	    -45.00000000	  -3320.58007495	  -3167.09794536	     22.49345260	    179.99999979	   1806.27906645	   -169.67558072	     13.25686216	     12.43849761	    -13.03461705	    -45.00000000	    -35.06294275	     45.00000000	    -45.00000000	  -2420.04621566	    -92.11362683	    135.92452081	   -133.01635526	    350.36077405	     49.37184211	     11.12555297	    -16.40179466
      4.22000000	     28.58058693	     30.72556798	     37.13368060	     -2.64191054	    781.08375841	    -56.99196681	     12.12063493	     33.84151037	     22.79780889	     45.00000000	    -45.00000000	  -3318.41696262	  -3167.40452063	     21.70403569	    179.99999979	   1804.41931700	   -169.45689788	     12.09892505	     12.86161728	    -11.23037234	    -45.00000000	    -35.82489821	     45.00000000	    -45.00000000	  -2419.68102361	    -91.91400956	    135.75631517	   -133.05187515	    350.51365081	     49.77265077	     10.91591019	    -16.44111935
      4.23000000	     28.80330756	     30.46495158	     36.93031426	     -5.80666284	    781.90168663	    -57.05472993	     12.10592798	     34.26256591	     23.01524628	     45.00000000	    -45.00000000	  -3318.88839850	  -3167.52613508	     21.86049418	    179.99999979	   1804.50853752	   -169.57277274	     12.14347591	     12.88340251	    -11.73744298	    -45.00000000	    -35.46044379	     45.00000000	    -45.00000000	  -2419.52417817	    -91.82915266	    135.84620849	   -133.65935738	    350.57032004	     49.71237759	     11.03624899	    -16.51667954
